<svg width="20" height="20" viewBox="0 0 20 20" fill="none" xmlns="http://www.w3.org/2000/svg">
<path fill-rule="evenodd" clip-rule="evenodd" d="M0 10C0 15.5228 4.47715 20 10 20C15.5228 20 20 15.5228 20 10C20 4.47715 15.5228 0 10 0C4.47715 0 0 4.47715 0 10ZM6.30514 9.46193C6.6386 9.23513 7.10811 9.30079 7.35382 9.6086L9.30615 12.0544L13.6042 5.34021C13.8149 5.01104 14.2748 4.90188 14.6314 5.09639C14.988 5.2909 15.1063 5.71543 14.8956 6.0446L10.0207 13.6599C9.74722 14.087 9.09006 14.1178 8.77121 13.7184L6.14625 10.4299C5.90055 10.1221 5.97169 9.68874 6.30514 9.46193Z" fill="black"/>
</svg>
