<?xml version="1.0" encoding="utf-8"?>
<svg width="140px" height="58px" viewBox="0 0 32.906 58" version="1.1" xmlns="http://www.w3.org/2000/svg">
  <title>Combined Shape Copy 7</title>
  <g id="Page-1" stroke="none" stroke-width="1" fill="none" fill-rule="evenodd" transform="matrix(1, 0, 0, 1, -0.801456, 0.563)">
    <g id="utility_hay_2" transform="translate(-850.000000, -20.000000)" fill="#250858">
      <path d="M 865.317 28.165 L 860.101 28.165 L 860.101 58.338 C 860.101 60.168 860.055 62.045 860.563 63.782 C 861.394 66.644 863.701 68.428 866.747 68.709 L 867.624 68.709 C 870.717 68.474 873.024 66.691 873.855 63.782 C 874.366 62.179 874.406 60.456 874.409 58.798 L 874.409 28.165 L 869.193 28.165 L 869.193 61.248 C 869.193 61.248 869.24 62.468 868.501 63.219 C 868.27 63.5 867.947 63.641 867.532 63.735 L 866.886 63.735 C 866.563 63.641 866.24 63.5 866.009 63.265 C 865.355 62.556 865.319 61.471 865.317 61.313 L 865.317 28.165 Z" id="Combined-Shape-Copy-7"/>
    </g>
  </g>
</svg>